<?xml version="1.0" encoding="UTF-8" standalone="no"?><!DOCTYPE svg PUBLIC "-//W3C//DTD SVG 1.1//EN" "http://www.w3.org/Graphics/SVG/1.1/DTD/svg11.dtd"><svg width="100%" height="100%" viewBox="0 0 4484 421" version="1.1" xmlns="http://www.w3.org/2000/svg" xmlns:xlink="http://www.w3.org/1999/xlink" xml:space="preserve" xmlns:serif="http://www.serif.com/" style="fill-rule:evenodd;clip-rule:evenodd;stroke-linejoin:round;stroke-miterlimit:2;"><g><path d="M2576.83,412.829l-218.529,0l0,-13.091c35.85,-2.417 40.212,-6.288 40.212,-32.946l0,-233.067c0,-26.646 -4.362,-30.025 -40.212,-32.442l0,-13.091c29.55,2.416 44.096,3.379 63.475,3.379c19.379,-0 33.912,-0.963 63.479,-3.379l0,13.091c-35.854,2.417 -40.229,5.796 -40.229,32.442l0,234.521c0,22.3 6.304,27.621 31.496,27.621l32,-0c38.758,-0 54.742,-15.021 68.308,-63.475l12.1,-0l-12.1,80.437Z" style="fill:#1d1d1b;fill-rule:nonzero;"/><path d="M2836.63,29.075c0,15.983 -13.079,29.079 -29.079,29.079c-15.966,0 -29.075,-13.096 -29.075,-29.079c0,-16.471 13.108,-29.075 29.584,-29.075c15.491,0 28.57,13.092 28.57,29.075Zm-87.2,0c0,15.983 -13.096,29.079 -29.079,29.079c-16,0 -29.079,-13.096 -29.079,-29.079c0,-16.471 13.079,-29.075 29.554,-29.075c15.508,0 28.604,13.092 28.604,29.075Zm116.75,277.638c0,33.924 -4.341,52.324 -17.42,70.266c-19.396,27.117 -51.363,41.175 -93.046,41.175c-36.342,0 -66.871,-11.625 -86.742,-33.912c-16.946,-18.413 -23.25,-38.284 -23.25,-73.646l0,-176.871c0,-26.646 -4.358,-30.025 -40.229,-32.442l-0,-13.091c29.554,2.416 44.1,3.379 63.479,3.379c18.904,-0 33.925,-0.963 63.479,-3.379l0,13.091c-35.854,2.417 -40.212,5.796 -40.212,32.442l-0,182.683c-0,29.08 3.883,43.609 15.021,56.196c13.091,15.034 33.925,22.788 60.079,22.788c31.983,-0 58.629,-12.113 70.758,-32.471c7.742,-13.092 11.138,-29.567 11.138,-55.229l-0,-173.967c-0,-26.646 -4.359,-30.025 -40.213,-32.442l0,-13.091c26.154,1.454 37.292,1.941 49.421,1.941c13.075,0 23.737,-0.487 47.967,-1.941l-0,13.091c-35.855,2.417 -40.23,5.796 -40.23,32.442l0,172.987Z" style="fill:#1d1d1b;fill-rule:nonzero;"/><path d="M3030.94,373.092c-0.001,19.871 4.358,23.754 28.095,23.754l17.455,-0c41.666,-0 64.441,-26.659 64.441,-74.625c0,-23.246 -6.304,-43.604 -16.962,-55.246c-10.175,-11.133 -24.704,-15.508 -49.913,-15.508l-43.116,-0l-0,121.625Zm31.491,-137.121c25.192,-0 37.813,-3.883 48.459,-15.996c10.17,-11.137 15.037,-27.608 15.037,-49.892c0,-45.55 -16.979,-64.929 -56.229,-64.929l-38.758,0l-0,130.817l31.491,-0Zm13.567,-146.325c31.983,-0 51.35,4.833 67.837,16.962c18.909,14.038 30.042,36.325 30.042,61.53c0,34.891 -17.925,59.116 -53.779,71.704c15.508,2.921 24.229,6.304 33.908,12.112c22.304,14.059 34.892,38.775 34.892,67.363c-0,32.471 -16.946,62.983 -43.117,78.004c-19.383,11.15 -40.721,15.508 -75.596,15.508l-125.012,0l-0,-13.091c35.854,-2.417 40.212,-6.288 40.212,-32.946l0,-231.6c0,-26.659 -4.358,-30.038 -40.212,-32.471l-0,-13.075l130.825,-0Z" style="fill:#1d1d1b;fill-rule:nonzero;"/><path d="M3465.17,412.829l-218.059,0l0.001,-13.091c35.87,-2.417 40.212,-6.288 40.212,-32.946l0,-231.6c0,-26.659 -4.342,-30.038 -40.213,-32.471l0.001,-13.075l215.641,-0l9.683,75.587l-12.112,0c-12.117,-47.966 -23.758,-60.079 -59.121,-60.079l-67.346,0l0,131.796l65.892,-0c20.85,-0 26.646,-8.242 28.592,-39.75l13.075,-0l-0,95.946l-13.075,-0c-1.455,-31.004 -8.23,-40.7 -28.592,-40.7l-65.892,-0l0,117.25c0,21.812 6.3,27.625 31.492,27.625l31.971,-0c38.283,-0 54.775,-15.509 68.325,-64.929l12.117,-0l-12.592,80.437Z" style="fill:#1d1d1b;fill-rule:nonzero;"/><path d="M3773.38,302.354c-2.446,72.192 -44.587,116.779 -109.516,116.779c-78.5,0 -130.338,-66.383 -130.338,-166.2c0,-103.208 51.838,-169.591 131.792,-169.591c32.471,-0 55.246,9.208 77.533,30.529l16.963,-30.038l9.208,0l0,99.325l-12.112,0c-13.584,-56.208 -40.705,-82.854 -84.8,-82.854c-31.513,0 -55.234,15.021 -69.292,43.609c-13.567,27.133 -20.342,63.475 -20.342,105.625c0,93.516 31.492,144.875 89.634,144.875c49.42,-0 80.425,-34.396 83.82,-92.059l17.45,0Z" style="fill:#1d1d1b;fill-rule:nonzero;"/><path d="M4020,125.021c5.338,-5.825 7.263,-9.204 7.263,-13.092c-0,-7.266 -4.846,-9.208 -30.021,-10.646l-0,-13.091c21.779,1.454 33.908,1.941 50.383,1.941c16.471,0 28.588,-0.487 50.383,-1.941l0,13.091c-28.1,1.438 -40.212,6.775 -58.141,26.155l-78.988,86.741l104.184,154.554c16.962,24.717 27.62,31.005 55.245,32.459l0,13.091c-28.587,-2.908 -44.095,-3.887 -65.42,-3.887c-20.83,-0 -36.83,0.979 -65.892,3.887l-0,-13.091c27.133,-1.929 32.946,-4.346 32.946,-13.079c-0,-3.871 -0.979,-6.3 -7.754,-16.471l-82.371,-128.404l-21.809,23.262l0,102.233c0,26.171 3.867,29.55 38.759,32.459l-0,13.091c-24.704,-2.416 -38.288,-3.395 -59.121,-3.395c-20.817,-0 -35.363,0.979 -63.967,3.395l0,-13.091c36.359,-2.909 40.229,-5.8 40.229,-32.459l0,-235.008c0,-26.646 -4.358,-30.025 -40.229,-32.442l0,-13.091c29.079,2.416 44.1,3.379 63.967,3.379c19.871,-0 33.912,-0.963 61.062,-3.379l0,13.091c-35.854,2.417 -40.229,5.796 -40.229,32.442l0,111.454l109.521,-120.158Z" style="fill:#1d1d1b;fill-rule:nonzero;"/><path d="M217.079,236.463l0,-102.738c0,-26.646 -4.346,-30.025 -40.212,-32.442l-0,-13.091c29.55,2.416 44.095,3.379 63.479,3.379c19.866,-0 33.908,-0.963 62.512,-3.379l0,13.091c-35.87,2.417 -40.229,5.796 -40.229,32.442l0,234.521c0,26.658 4.358,30.529 40.229,32.946l0,13.091c-28.604,-2.416 -42.646,-3.396 -62.512,-3.396c-19.384,0 -33.929,0.98 -63.479,3.396l-0,-13.091c35.866,-2.417 40.212,-6.288 40.212,-32.946l0,-116.292l-131.3,0l0,116.292c0,27.146 4.346,30.529 40.213,32.946l-0,13.091c-29.567,-2.416 -44.096,-3.396 -63.967,-3.396c-19.379,0 -33.421,0.98 -62.025,3.396l-0,-13.091c35.854,-2.417 40.229,-6.288 40.229,-32.946l0,-234.521c0,-26.646 -4.375,-30.025 -40.229,-32.442l-0,-13.091c28.604,2.416 42.646,3.379 62.025,3.379c19.871,-0 34.4,-0.963 63.967,-3.379l-0,13.091c-35.867,2.417 -40.213,5.796 -40.213,32.442l0,102.738l131.3,-0Z" style="fill:#1d1d1b;fill-rule:nonzero;"/><path d="M438.579,282.975c-59.116,11.15 -82.871,30.529 -82.871,67.342c0,27.625 14.529,44.587 38.284,44.587c19.871,0 33.925,-10.187 40.212,-29.075c2.921,-8.721 4.375,-21.796 4.375,-39.737l0,-43.117Zm75.104,129.854c-13.566,2.434 -20.358,3.396 -29.062,3.396c-25.208,0 -36.833,-12.129 -40.229,-41.679c-16.963,31.021 -34.4,42.642 -65.421,42.642c-40.213,-0 -67.838,-25.68 -67.838,-62.496c0,-29.563 17.93,-50.884 54.763,-66.396c22.283,-8.717 44.096,-14.529 72.683,-17.925l0,-29.55c0,-17.925 -1.941,-27.133 -7.754,-34.4c-6.304,-8.242 -17.925,-13.092 -31.496,-13.092c-21.812,0 -38.3,11.15 -38.3,26.171c0,1.454 0,4.358 0.504,6.792c0.492,2.891 0.492,6.283 0.492,7.262c-0,14.534 -7.283,22.288 -20.833,22.288c-11.642,-0 -17.942,-6.304 -17.942,-17.925c0,-31.496 36.833,-58.154 81.404,-58.154c29.075,-0 54.284,11.15 66.859,30.054c8.258,11.625 11.166,27.133 11.166,55.233l0,95.454c0,31.479 4.359,41.175 18.417,41.175c3.867,0 6.283,-0.487 12.587,-1.941l0,13.091Z" style="fill:#1d1d1b;fill-rule:nonzero;"/><path d="M531.2,190.442c28.571,-3.413 50.871,-8.246 67.837,-14.059c2.888,9.192 4.83,23.721 6.301,41.663c17.924,-26.642 37.795,-38.284 66.383,-38.284c26.171,0 48.458,11.642 60.558,31.021c7.754,11.621 11.15,28.584 11.15,50.871l0,115.325c0,21.796 4.846,25.192 34.888,26.642l-0,10.662c-24.23,-2.416 -36.834,-2.908 -54.742,-2.908c-18.908,0 -31.021,0.492 -54.288,2.908l0,-10.187c23.759,-0.963 30.042,-6.288 30.042,-26.154l0,-119.196c0,-20.829 -1.942,-31.492 -7.262,-39.738c-7.267,-10.658 -19.384,-16.47 -33.913,-16.47c-16.487,-0 -31.021,7.279 -39.737,19.866c-6.305,9.209 -8.23,18.417 -8.23,37.796l0,117.742c0,19.866 5.813,25.191 29.55,26.154l0,10.187c-23.266,-2.416 -35.379,-2.908 -53.779,-2.908c-18.416,0 -30.533,0.492 -54.758,2.908l-0,-10.662c30.037,-1.45 34.887,-4.846 34.887,-26.642l0,-145.854c-0.487,-20.833 -0.487,-22.288 -3.883,-26.646c-3.871,-3.396 -10.171,-4.375 -31.004,-4.375l-0,-9.662Z" style="fill:#1d1d1b;fill-rule:nonzero;"/><path d="M804.063,336.75l11.641,0c2.417,15.037 5.321,23.267 10.171,33.438c9.208,19.379 29.55,31.491 51.363,31.491c27.137,0 48.441,-18.4 48.441,-42.154c0,-14.529 -6.775,-23.738 -27.116,-34.888c-0,0 -15.513,-7.262 -46.042,-21.795c-34.892,-16.963 -46.025,-31.509 -46.025,-59.113c-0,-37.796 30.987,-64.442 74.612,-64.442c18.892,0 33.925,4.834 50.892,16.475l8.717,-21.32l8.716,-0l0,76.55l-11.637,-0c-4.85,-39.246 -20.817,-57.171 -50.875,-57.171c-25.192,-0 -45.063,16.962 -45.063,38.267c0,14.545 6.775,23.262 28.1,33.925c5.813,2.904 9.209,4.358 43.134,19.866c36.341,16.475 49.912,32.946 49.912,61.046c0,40.713 -32.95,70.262 -78.991,70.262c-22.775,0 -40.684,-6.299 -59.1,-20.829l-12.13,22.775l-8.72,0l-0,-82.383Z" style="fill:#1d1d1b;fill-rule:nonzero;"/><path d="M1142.25,276.671c-2.433,-59.113 -17.454,-86.229 -47.004,-86.229c-30.058,-0 -47.004,28.566 -50.892,86.229l97.896,-0Zm44.083,62.512c-6.287,49.892 -38.287,79.459 -86.729,79.459c-62.987,-0 -100.8,-44.571 -100.8,-119.196c0,-74.134 37.813,-121.625 96.929,-121.625c58.142,-0 89.163,40.225 90.6,116.304l-142.941,0c0.491,76.062 18.904,107.554 63.004,107.554c33.421,0 54.742,-22.283 61.046,-62.496l18.891,0Z" style="fill:#1d1d1b;fill-rule:nonzero;"/><path d="M1224.1,336.75l11.642,0c2.433,15.037 5.32,23.267 10.17,33.438c9.209,19.379 29.567,31.491 51.363,31.491c27.137,0 48.458,-18.4 48.458,-42.154c0,-14.529 -6.775,-23.738 -27.133,-34.888c-0,0 -15.513,-7.262 -46.025,-21.795c-34.908,-16.963 -46.042,-31.509 -46.042,-59.113c0,-37.796 31.004,-64.442 74.613,-64.442c18.921,0 33.925,4.834 50.887,16.475l8.738,-21.32l8.7,-0l-0,76.55l-11.625,-0c-4.834,-39.246 -20.834,-57.171 -50.871,-57.171c-25.192,-0 -45.063,16.962 -45.063,38.267c0,14.545 6.792,23.262 28.096,33.925c5.813,2.904 9.209,4.358 43.138,19.866c36.325,16.475 49.908,32.946 49.908,61.046c0,40.713 -32.962,70.262 -78.987,70.262c-22.775,0 -40.7,-6.299 -59.134,-20.829l-12.1,22.775l-8.733,0l-0,-82.383Z" style="fill:#1d1d1b;fill-rule:nonzero;"/><path d="M1542.91,401.192c-21.8,12.6 -31.97,15.996 -49.42,15.996c-24.213,-0 -41.684,-9.68 -49.913,-27.621c-4.341,-9.684 -6.3,-22.775 -6.3,-43.117l0,-7.754l2.429,-136.634l-30.529,0.001l0,-15.509c31.496,-0.487 52.342,-25.208 61.046,-72.192l14.058,0l-0.475,69.759l54.255,-0l-0,17.941l-54.746,0l-0,141.48c-0,23.25 0.966,32.458 4.362,39.737c4.359,9.683 12.113,14.042 23.263,14.042c9.683,-0 13.566,-1.454 31.971,-11.133l-0,15.004Z" style="fill:#1d1d1b;fill-rule:nonzero;"/><path d="M1686.8,282.975c-59.104,11.15 -82.858,30.529 -82.858,67.342c-0,27.625 14.545,44.587 38.283,44.587c19.871,0 33.929,-10.187 40.213,-29.075c2.925,-8.721 4.362,-21.796 4.362,-39.737l0,-43.117Zm75.1,129.854c-13.55,2.434 -20.342,3.396 -29.075,3.396c-25.196,0 -36.817,-12.129 -40.217,-41.679c-16.962,31.021 -34.383,42.642 -65.404,42.642c-40.225,-0 -67.837,-25.68 -67.837,-62.496c-0,-29.563 17.929,-50.884 54.762,-66.396c22.284,-8.717 44.096,-14.529 72.671,-17.925l0,-29.55c0,-17.925 -1.946,-27.133 -7.758,-34.4c-6.284,-8.242 -17.925,-13.092 -31.475,-13.092c-21.813,0 -38.288,11.15 -38.288,26.171c0,1.454 0,4.358 0.475,6.792c0.488,2.891 0.488,6.283 0.488,7.262c-0,14.534 -7.267,22.288 -20.834,22.288c-11.637,-0 -17.925,-6.304 -17.925,-17.925c0,-31.496 36.834,-58.154 81.404,-58.154c29.08,-0 54.271,11.15 66.859,30.054c8.246,11.625 11.133,27.133 11.133,55.233l0,95.454c0,31.479 4.363,41.175 18.433,41.175c3.871,0 6.3,-0.487 12.588,-1.941l0,13.091Z" style="fill:#1d1d1b;fill-rule:nonzero;"/><path d="M1829.33,299.938c0,70.25 17.45,106.116 51.85,106.116c33.438,0 50.384,-34.412 50.384,-102.246c-0,-72.195 -17.434,-108.045 -52.325,-108.045c-33.421,-0 -49.909,33.908 -49.909,104.175Zm181.225,105.137c-34.891,3.871 -44.1,5.813 -67.837,13.567c-4.834,-19.379 -4.834,-19.379 -6.779,-37.304c-14.055,26.641 -32.471,38.266 -59.605,38.266c-54.27,0 -92.541,-49.416 -92.541,-119.192c-0,-68.8 37.796,-118.216 90.596,-118.216c25.208,-0 37.812,7.737 56.704,33.908l-0,-79.946c-0,-26.171 -3.888,-29.079 -34.417,-29.55l0,-9.208c23.754,-1.942 54.758,-7.267 78.025,-14.058l0,279.579c0,29.062 3.396,31.983 35.854,32.471l0,9.683Z" style="fill:#1d1d1b;fill-rule:nonzero;"/><path d="M2157.88,401.192c-21.779,12.6 -31.966,15.996 -49.404,15.996c-24.246,-0 -41.683,-9.68 -49.929,-27.621c-4.342,-9.684 -6.283,-22.775 -6.283,-43.117l-0,-7.754l2.416,-136.634l-30.516,0.001l-0,-15.509c31.495,-0.487 52.329,-25.208 61.046,-72.192l14.058,0l-0.492,69.759l54.271,-0l0,17.941l-54.758,0l-0,141.48c-0,23.25 0.979,32.458 4.358,39.737c4.375,9.683 12.112,14.042 23.267,14.042c9.679,-0 13.55,-1.454 31.966,-11.133l0,15.004Z" style="fill:#1d1d1b;fill-rule:nonzero;"/><rect x="4278.88" y="258.446" width="198.283" height="149.662" style="fill:#d5112a;"/><rect x="4278.88" y="91.779" width="198.283" height="128.829" style="fill:#fff;"/><path d="M4480.92,228.888l-0,-140.909l-205.755,0l0.001,140.909l205.754,-0Zm-13.892,-13.888l-177.971,0l0,-113.129l177.971,-0l0,113.129Z" style="fill:#1d1d1b;"/><path d="M4480.92,411.842l-0,-157.129l-205.755,-0l0.001,157.129l205.754,-0Zm-13.892,-13.888l-177.971,0l0,-129.35l177.971,0l0,129.35Z" style="fill:#1d1d1b;"/></g></svg>